<svg t="1746639694610" class="icon" viewBox="0 0 1024 1024" version="1.1" xmlns="http://www.w3.org/2000/svg"
     p-id="1605" width="16" height="16">
    <path d="M393.813333 0v492.714667c0 19.797333 19.114667 35.84 42.709334 35.84h10.112c20.906667 0 40.917333-6.997333 55.68-19.370667l100.053333-83.84c15.36-12.842667 40.277333-12.842667 55.637333 0l100.266667 83.925333c14.805333 12.330667 34.816 19.242667 55.637333 19.242667h9.984c23.466667 0 42.538667-15.914667 42.581334-35.626667V0h78.762666C988.757333 0 1024 29.568 1024 66.048v891.904c0 36.48-35.285333 66.048-78.762667 66.048H78.762667C35.242667 1024 0 994.432 0 957.952V66.048C0 29.568 35.285333 0 78.762667 0h315.093333zM469.333333 0h341.333334v426.666667l-110.336-82.688c-33.322667-24.96-87.338667-24.96-120.661334 0L469.333333 426.666667V0z"
          fill="#FD973F" p-id="9144"></path>
</svg>